<?xml version="1.0" encoding="UTF-8" standalone="no"?>
<svg
   role="img"
   viewBox="0 0 24 24"
   version="1.1"
   id="svg1"
   sodipodi:docname="ubuntu.svg"
   inkscape:version="1.3.2 (091e20e, 2023-11-25, custom)"
   xmlns:inkscape="http://www.inkscape.org/namespaces/inkscape"
   xmlns:sodipodi="http://sodipodi.sourceforge.net/DTD/sodipodi-0.dtd"
   xmlns="http://www.w3.org/2000/svg"
   xmlns:svg="http://www.w3.org/2000/svg"
   xmlns:rdf="http://www.w3.org/1999/02/22-rdf-syntax-ns#"
   xmlns:cc="http://creativecommons.org/ns#"
   xmlns:dc="http://purl.org/dc/elements/1.1/">
  <defs
     id="defs1" />
  <sodipodi:namedview
     id="namedview1"
     pagecolor="#e95420"
     bordercolor="#000000"
     borderopacity="0.25"
     inkscape:showpageshadow="2"
     inkscape:pageopacity="0.0"
     inkscape:pagecheckerboard="0"
     inkscape:deskcolor="#d1d1d1"
     inkscape:zoom="34.208333"
     inkscape:cx="12"
     inkscape:cy="12"
     inkscape:window-width="1920"
     inkscape:window-height="1017"
     inkscape:window-x="-8"
     inkscape:window-y="-8"
     inkscape:window-maximized="1"
     inkscape:current-layer="svg1" />
  <title
     id="title1">Ubuntu</title>
  <path
     d="M17.61.455a3.41 3.41 0 0 0-3.41 3.41 3.41 3.41 0 0 0 3.41 3.41 3.41 3.41 0 0 0 3.41-3.41 3.41 3.41 0 0 0-3.41-3.41zM12.92.8C8.923.777 5.137 2.941 3.148 6.451a4.5 4.5 0 0 1 .26-.007 4.92 4.92 0 0 1 2.585.737A8.316 8.316 0 0 1 12.688 3.6 4.944 4.944 0 0 1 13.723.834 11.008 11.008 0 0 0 12.92.8zm9.226 4.994a4.915 4.915 0 0 1-1.918 2.246 8.36 8.36 0 0 1-.273 8.303 4.89 4.89 0 0 1 1.632 2.54 11.156 11.156 0 0 0 .559-13.089zM3.41 7.932A3.41 3.41 0 0 0 0 11.342a3.41 3.41 0 0 0 3.41 3.409 3.41 3.41 0 0 0 3.41-3.41 3.41 3.41 0 0 0-3.41-3.41zm2.027 7.866a4.908 4.908 0 0 1-2.915.358 11.1 11.1 0 0 0 7.991 6.698 11.234 11.234 0 0 0 2.422.249 4.879 4.879 0 0 1-.999-2.85 8.484 8.484 0 0 1-.836-.136 8.304 8.304 0 0 1-5.663-4.32zm11.405.928a3.41 3.41 0 0 0-3.41 3.41 3.41 3.41 0 0 0 3.41 3.41 3.41 3.41 0 0 0 3.41-3.41 3.41 3.41 0 0 0-3.41-3.41z"
     id="path1"
     style="fill:#ffffff" />
  <metadata
     id="metadata1">
    <rdf:RDF>
      <cc:Work
         rdf:about="">
        <dc:title>Ubuntu</dc:title>
      </cc:Work>
    </rdf:RDF>
  </metadata>
</svg>
